<svg xmlns="http://www.w3.org/2000/svg" width="131" height="66" fill="none" viewBox="0 0 131 66"><path fill="#AA2923" fill-rule="evenodd" d="M93.054 30.052a13.913 13.913 0 0 0-5.72-4.158 25.095 25.095 0 0 0-3.887-1.122c-7.402-1.584-3.1-8.536 1.157-5.896l.764.572c2.449.182 4.905.219 7.358.11a7.51 7.51 0 0 0-2.882-4.598c-3.493-3.19-11.79-3.872-15.807 1.716a9.683 9.683 0 0 0-1.07 8.184 9.03 9.03 0 0 0 4.367 4.4c.266.179.543.34.83.484 2.183 1.012 5.85 2.2 7.139 2.86 5.458 3.146-2.555 10.626-6.878 2.354H71.33V1.54h-6.746v12.122h-6.157c0 4.818.24 10.318 0 15.07-.524 10.186-14.585 10.692-14.52.154V13.662h-6.79l-.152 11.814a14.49 14.49 0 0 0-2.686-6.402 16.543 16.543 0 0 0-4.682-4.568 16.364 16.364 0 0 0-12.588-2.207 16.424 16.424 0 0 0-5.939 2.705c-.633.484-1.091.88-1.724 1.386a15.108 15.108 0 0 0-2.97 3.058c-.45.597-.852 1.23-1.2 1.892a17.005 17.005 0 0 0-1.594 4.598 49.166 49.166 0 0 0-.306 5.192v24.354h6.9V41.58c4.955 2.662 10.436 4.994 17.007 2.2a16.69 16.69 0 0 0 8.363-7.986 12.966 12.966 0 0 0 1.31-4.29h.262c0 7.084 5.392 11 11.877 11.682 4.14.653 8.374-.248 11.9-2.53a9.627 9.627 0 0 0 3.689-4.818v7.986h6.746V35.2l.35.968c.075.352.178.698.305 1.034a12.427 12.427 0 0 0 2.97 4.972 10.627 10.627 0 0 0 3.523 2.32c1.316.529 2.724.787 4.14.76 2.911.23 5.8-.667 8.079-2.508a10.97 10.97 0 0 0 2.532-2.794 9.395 9.395 0 0 0 1.42-4.026l1.244 2.024c.443.673.924 1.319 1.44 1.936a16.654 16.654 0 0 0 3.669 2.948c6.07 3.63 15.436 2.97 20.305-1.606a16.318 16.318 0 0 0 2.38-2.508c.262-.352.458-.638.72-1.034a13.72 13.72 0 0 0 1.943-4.862h-7.488c-.284.44-.481.858-.786 1.276l-.481.55a10.289 10.289 0 0 1-3.686 2.664 10.22 10.22 0 0 1-8.841-.403 10.318 10.318 0 0 1-3.433-2.987 7.53 7.53 0 0 1-.764-1.276 18.68 18.68 0 0 1-.939-3.366h26.702a19.94 19.94 0 0 0-1.484-6.93 15.498 15.498 0 0 0-4.573-6.308 15.337 15.337 0 0 0-7.043-3.262 18.211 18.211 0 0 0-10.654 1.364 15.906 15.906 0 0 0-7.402 6.376 16.09 16.09 0 0 0-2.314 9.53h-.11Zm-79.648-2.508-7.86.374 8.427.528 1.922-5.632 3.951 15.532 3.668-9.46 11.747-.814-12.249-.154-2.947 6.952-3.952-15.224-2.707 7.898Zm88.73-4.4h15.546c-3.581-5.412-12.445-5.588-15.546 0Z" clip-rule="evenodd"/><path fill="#AA2923" d="M102.442 57.882h2.554v2.486h-2.554v-2.486ZM107.377 50.842h1.965v1.386a3.37 3.37 0 0 1 1.276-1.223 3.344 3.344 0 0 1 1.715-.405 2.97 2.97 0 0 1 2.461.8 3.017 3.017 0 0 1 .923 2.434v6.6h-2.183v-6.05c0-1.496-.634-2.2-1.856-2.2a2.299 2.299 0 0 0-1.616.79 2.353 2.353 0 0 0-.568 1.718v5.632h-2.183l.066-9.482ZM126.633 59.884c0 2.86-1.659 4.268-4.65 4.268-1.9 0-4.039-.726-4.236-2.97h2.184c.262 1.21 1.2 1.408 2.183 1.408a2.165 2.165 0 0 0 1.739-.667 2.21 2.21 0 0 0 .597-1.775v-1.452c-.283.508-.695.93-1.194 1.224a3.233 3.233 0 0 1-1.644.448c-3.013 0-4.258-2.2-4.258-5.016a4.428 4.428 0 0 1 1.14-3.356 4.342 4.342 0 0 1 3.227-1.418 2.994 2.994 0 0 1 1.582.394c.482.276.878.68 1.147 1.168v-1.298h2.183v9.042Zm-2.183-4.4c0-1.65-.72-3.168-2.533-3.168-1.812 0-2.489 1.738-2.489 3.322s.743 3.168 2.489 3.168c1.747 0 2.533-1.782 2.533-3.41v.088Z"/></svg>