<svg xmlns="http://www.w3.org/2000/svg" width="168" height="44" fill="none" viewBox="0 0 168 44"><g fill="none" clip-path="url(#clip0_3846_76349)"><path fill="#1A1A1A" d="M8.237 6.18H0V2.187h21.08V6.18h-8.238v21.215H8.237V6.18ZM38.19 19.259H23.251c.524 2.775 2.846 4.562 6.14 4.562a6.648 6.648 0 0 0 2.782-.47 6.734 6.734 0 0 0 2.348-1.583l2.396 2.775c-1.722 2.053-4.38 3.118-7.638 3.118-6.365 0-10.483-4.144-10.483-9.885s4.268-9.771 9.884-9.771c5.541 0 9.585 3.916 9.585 9.923l-.075 1.369v-.038Zm-14.976-3.004h10.783c-.337-2.776-2.434-4.677-5.354-4.677a5.193 5.193 0 0 0-3.593 1.273 5.347 5.347 0 0 0-1.799 3.404h-.037Zm15.95 1.559c0-5.78 4.23-9.81 10.259-9.81 3.669 0 6.627 1.521 8.087 4.449l-3.444 2.015c-1.124-1.825-2.809-2.662-4.68-2.662-3.296 0-5.767 2.282-5.767 6.008 0 3.764 2.471 6.007 5.766 6.007 1.872 0 3.557-.837 4.68-2.662l3.445 2.015c-1.497 2.852-4.418 4.487-8.087 4.487-5.99 0-10.26-4.068-10.26-9.847Zm38.864-1.407v11.026H73.61V17.015c0-3.421-1.647-5.094-4.493-5.094-3.183 0-5.317 1.939-5.317 5.779v9.733h-4.418V.705H63.8v9.733c1.46-1.597 3.707-2.471 6.328-2.471 4.53 0 7.9 2.66 7.9 8.44Zm24 1.407c0 6.007-4.119 9.885-9.622 9.885-2.434 0-4.53-.837-6.066-2.585v9.314h-4.418V8.195h4.193v2.509c1.498-1.825 3.707-2.737 6.29-2.737a9.122 9.122 0 0 1 3.772.643 9.236 9.236 0 0 1 3.194 2.138 9.422 9.422 0 0 1 2.068 3.266 9.533 9.533 0 0 1 .589 3.838v-.038Zm-4.493 0c0-3.688-2.434-6.008-5.616-6.008-3.22 0-5.616 2.358-5.616 6.008s2.396 6.007 5.616 6.007c3.22 0 5.616-2.357 5.616-6.007Zm5.392 0c0-5.78 4.231-9.81 10.034-9.81 5.916 0 10.109 4.069 10.109 9.81 0 5.779-4.193 9.885-10.109 9.885-5.803 0-10.034-4.106-10.034-9.885Zm15.725 0c0-3.688-2.434-6.008-5.654-6.008-3.182 0-5.616 2.358-5.616 6.008s2.434 6.007 5.616 6.007c3.22 0 5.617-2.357 5.617-6.007h.037Zm6.328-15.512c0-1.521 1.198-2.662 2.808-2.662 1.61 0 2.845 1.14 2.845 2.585 0 1.56-1.16 2.814-2.845 2.814-1.61 0-2.808-1.179-2.808-2.7v-.037Zm.599 5.893h4.418v19.2h-4.418v-19.2Zm27.182 8.212v11.026h-4.493V17.015c0-3.421-1.647-5.094-4.493-5.094-3.145 0-5.279 1.939-5.279 5.779v9.733h-4.455V8.195h4.193v2.509a8.238 8.238 0 0 1 2.959-2.092 8.128 8.128 0 0 1 3.556-.607c4.568-.038 7.937 2.585 7.937 8.402h.075Zm15.239 10a6.925 6.925 0 0 1-4.268 1.292c-4.119 0-6.515-2.281-6.515-6.502v-9.276h-3.145V8.385h3.145v-4.41h4.418v4.41h5.092v3.574h-5.092v9.163c0 1.9.936 2.889 2.621 2.889.936 0 1.834-.266 2.508-.798L168 26.406Z"/><path fill="#3199D0" d="M129.548 40.474v2.053h-2.172v-2.053h2.172Zm8.312 1.863-.375.19-.374.114-.225.038h-.15a1.293 1.293 0 0 1-.936-.38l-.299-.38c-.113-.153-.15-.305-.225-.495-.364.429-.81.778-1.31 1.027l-.599.19a3.1 3.1 0 0 1-1.685-.114c-.3-.114-.562-.304-.824-.494a2.12 2.12 0 0 1-.524-.76c-.15-.305-.187-.647-.187-1.027 0-.305.037-.57.187-.799.136-.256.328-.477.561-.646l.787-.418.898-.343.936-.266.749-.304c.205-.097.395-.225.562-.38a.526.526 0 0 0 .224-.418.766.766 0 0 0-.449-.76c-.112-.039-.262-.115-.449-.115l-.487-.038-.487.038-.449.228a1.026 1.026 0 0 0-.299.38c-.113.153-.15.343-.188.533h-1.872c.015-.427.13-.845.337-1.217a2.95 2.95 0 0 1 .759-.888 2.902 2.902 0 0 1 1.038-.518c.375-.114.749-.19 1.124-.19.449 0 .861.075 1.273.151.412.115.749.267 1.048.495.3.228.524.456.711.76.188.38.263.76.263 1.217v3.954c0 .114.037.19.112.304.075.114.15.114.299.114h.15c.075 0 .262-.076.375-.19v1.407Zm-2.846-3.726a1.185 1.185 0 0 1-.487.19l-.599.19-.711.19-.637.266c-.187.076-.337.19-.449.304-.112.114-.15.305-.15.457 0 .152 0 .304.075.38.075.152.112.228.225.304l.299.19h.3c.374 0 .749-.114 1.123-.342.375-.228.749-.646 1.048-1.14v-.99h-.037Zm4.119-4.258v-1.635c0-.267.037-.495.149-.685.112-.23.269-.432.463-.596a1.78 1.78 0 0 1 .661-.354c.361-.12.745-.16 1.123-.114l.374.038c.15 0 .3.076.487.152l.637.228v1.52l-.637-.227-.412-.114-.262-.038h-.112l-.225.038-.187.114a.209.209 0 0 0-.112.19c-.075.038-.075.152-.075.228v1.178h1.497v1.597h-1.497v6.616h-1.872v-6.616h-1.273v-1.558l1.273.038Zm3.894 0h1.385l.299.988c.225-.38.487-.684.749-.874.262-.19.562-.267.861-.267l.487.038.749.305v1.672l-.524-.19-.337-.076h-.3c-.262 0-.449 0-.636.114l-.487.38a2.033 2.033 0 0 0-.374 1.255v4.905h-1.91v-8.25h.038Zm6.739-3.042v1.9h-1.872v-1.9h1.872Zm0 3.041v8.175h-1.872v-8.175h1.872Zm6.178 2.928c-.15-.532-.337-.95-.562-1.178-.262-.267-.561-.38-.973-.38-.262 0-.524.075-.749.227a2.82 2.82 0 0 0-.599.57 3.578 3.578 0 0 0-.487 1.788c0 .38.075.76.15 1.064.138.598.467 1.133.936 1.521.225.19.487.266.749.266.187 0 .374-.038.561-.152.188-.114.337-.228.45-.38.149-.19.262-.38.337-.608l.187-.723h1.947c-.075.532-.187 1.027-.375 1.445-.166.4-.412.762-.721 1.063-.309.3-.675.534-1.076.686a3.836 3.836 0 0 1-2.508.038 3.108 3.108 0 0 1-1.61-1.217 3.948 3.948 0 0 1-.487-.874 5.174 5.174 0 0 1-.375-2.091c0-.609.075-1.141.263-1.673.187-.494.449-.95.748-1.33a3.48 3.48 0 0 1 1.161-.837 3.839 3.839 0 0 1 2.883-.076c.374.152.711.38 1.011.646.262.266.524.608.711.988.188.38.3.76.375 1.217h-1.947Zm10.221 5.057-.411.19-.337.114-.225.038h-.187a1.298 1.298 0 0 1-.936-.38l-.3-.38-.225-.495a4.122 4.122 0 0 1-1.273 1.027l-.636.19a3.097 3.097 0 0 1-1.647-.114c-.375-.114-.6-.304-.824-.494a2.138 2.138 0 0 1-.562-.76 2.95 2.95 0 0 1-.187-1.027c0-.305.075-.57.225-.799.136-.256.328-.477.561-.646l.749-.418c.337-.152.599-.267.936-.343l.899-.266.749-.304a2.25 2.25 0 0 0 .599-.38c.112-.114.224-.266.224-.418a.755.755 0 0 0-.486-.76c-.113-.039-.263-.115-.45-.115l-.487-.038-.486.038a.887.887 0 0 0-.412.228c-.15.077-.262.229-.337.38-.075.153-.15.343-.15.533h-1.909c.014-.427.13-.845.337-1.217.192-.344.449-.646.758-.888a2.907 2.907 0 0 1 1.039-.518c.374-.114.749-.19 1.16-.19.45 0 .862.075 1.273.151.375.115.749.267 1.011.495.262.228.562.456.749.76.15.38.225.76.225 1.217v3.954c0 .114.037.19.112.304.075.114.187.114.3.114h.187c.112 0 .225-.076.374-.19v1.407Zm-2.883-3.726-.449.19-.636.19-.674.19-.637.266c-.187.076-.374.19-.449.304-.075.114-.187.305-.187.457 0 .152 0 .304.074.38l.225.304.3.19h.337c.374 0 .748-.114 1.123-.342.374-.228.711-.646 1.011-1.14v-.99h-.038Z"/></g><defs><clipPath id="clip0_3846_76349"><path fill="#fff" d="M0 .5h168v43H0z"/></clipPath></defs></svg>