<svg xmlns="http://www.w3.org/2000/svg" width="173" height="38" fill="none" viewBox="0 0 173 38"><g fill="red" clip-path="url(#clip0_3583_66519)"><path d="M.5 1.723c0 .157 1.67 5.017 3.749 10.755 2.047 5.738 4.095 11.602 4.567 13.044l.883 2.571H17.227l.567-1.348c.316-.721 3.308-6.585 6.616-13.044 3.308-6.46 6.017-11.853 6.017-12.01 0-.125-1.512-.25-3.371-.25h-3.402l-1.733 3.7c-.945 2.006-3.15 6.616-4.883 10.19l-3.181 6.554-3.213-9.846C8.879 6.614 7.43 2.005 7.43 1.817c0-.282-1.008-.376-3.465-.376C2.012 1.44.5 1.566.5 1.723ZM166.199 4.482v3.073h-3.874c-3.528.031-4.001.094-5.765.91-3.276 1.473-5.292 4.201-6.111 8.183-.788 3.763.378 7.902 2.772 9.877 3.024 2.478 8.096 2.54 11.246.126l1.102-.815v2.258h5.608l.189-3.23c.094-1.756.315-6.867.504-11.351.189-4.484.441-9.03.535-10.097l.189-1.975h-6.395v3.041Zm-.976 7.526c.724.188.724.22.504 3.323-.284 3.983-.882 6.02-2.174 7.306-1.354 1.349-2.866 1.63-4.662.816-1.764-.753-2.457-2.101-2.457-4.672 0-2.133.756-3.92 2.142-5.206 1.481-1.41 4.568-2.132 6.647-1.567ZM33.388 7.869c-3.591.627-3.497.564-3.717 2.696-.126 1.066-.158 1.976-.095 2.038.063.094 1.26-.156 2.615-.533 3.276-.909 6.741-.972 7.655-.156 1.638 1.473.346 2.602-4.284 3.762-5.576 1.411-7.498 2.54-8.474 5.08-.473 1.223-.473 1.662-.158 3.01.788 3.387 2.772 4.64 7.403 4.64 3.686 0 3.749-.03 4.316-2.226.283-1.034.378-1.944.252-2.038-.126-.062-.882.032-1.67.22-2.835.69-5.166-.565-4.347-2.383.44-.94 1.417-1.443 4.442-2.352 1.26-.376 2.52-.752 2.803-.846.41-.157.441.282.252 3.543-.126 2.038-.315 4.201-.41 4.734l-.157 1.035h6.364v-2.132c0-1.16.157-4.86.378-8.215.315-5.55.315-6.209-.158-7.212-.661-1.348-2.11-2.383-4-2.79-1.89-.44-6.27-.377-9.01.125ZM58.904 7.837c-.724.22-1.827.815-2.457 1.286l-1.134.846.189-.972.22-.972h-6.3l-.22 4.923c-.19 4.202-.63 11.382-.914 14.204l-.063.784 3.182.094 3.182.095.22-4.798c.315-7.431 1.04-9.407 3.843-10.473 1.323-.502 1.575-.502 2.74-.094 2.615.91 2.773 1.568 2.332 10.222l-.252 5.111h6.269l.22-7.682c.126-4.233.158-8.121.032-8.654-.284-1.411-1.323-2.728-2.804-3.48-1.67-.847-6.3-1.098-8.285-.44ZM80.2 7.743c-3.591.69-6.93 3.48-8.222 6.804-.82 2.133-.977 6.052-.315 8.278.535 1.82 2.205 3.826 3.938 4.704 1.638.846 5.008 1.097 6.961.564.788-.22 2.017-.815 2.741-1.317l1.292-.94-.252 1.85c-.315 2.508-.883 3.73-2.111 4.452-1.953 1.192-3.465 1.16-10.396-.188l-.85-.157.189 2.29c.094 1.285.315 2.414.504 2.508.535.376 5.702.909 8.568.909 3.529 0 6.049-.69 7.655-2.07 2.08-1.755 2.3-2.759 2.615-11.1.157-4.044.41-9.25.599-11.57.189-2.289.283-4.264.189-4.327-.064-.063-1.387-.345-2.899-.596-3.055-.47-7.97-.533-10.206-.094Zm5.765 4.39 1.197.314-.19 2.57c-.409 5.425-1.228 7.4-3.433 8.404-1.607.721-2.237.721-3.843 0-1.638-.752-2.331-2.132-2.331-4.64.031-3.167 1.7-5.676 4.441-6.522 1.701-.534 2.615-.565 4.159-.126ZM122.538 7.869c-3.591.627-3.496.564-3.717 2.696-.126 1.066-.157 1.976-.094 2.038.063.094 1.26-.156 2.614-.533 3.276-.909 6.742-.972 7.655-.156 1.638 1.473.347 2.602-4.284 3.762-5.576 1.411-7.498 2.54-8.474 5.08-.473 1.223-.473 1.662-.158 3.01.788 3.387 2.773 4.64 7.403 4.64 3.686 0 3.749-.03 4.316-2.226.284-1.034.378-1.944.252-2.038-.126-.062-.882.032-1.67.22-2.835.69-5.166-.565-4.347-2.383.441-.94 1.418-1.443 4.442-2.352 1.26-.376 2.52-.752 2.804-.846.409-.157.441.282.252 3.543-.126 2.038-.315 4.201-.41 4.734l-.157 1.035H135.328v-2.132c0-1.16.158-4.86.378-8.215.315-5.55.315-6.209-.157-7.212-.662-1.348-2.111-2.383-4.001-2.79-1.89-.44-6.269-.377-9.01.125ZM146.7 7.712c-.41.188-1.134.596-1.638.972l-.914.627v-.627c0-.627-.189-.659-2.929-.659h-2.961l-.189 7.432c-.126 4.107-.316 8.623-.41 10.034l-.221 2.602h6.332l.126-5.738c.158-6.052.347-6.992 1.733-8.435 1.197-1.254 2.709-1.662 4.221-1.191.693.22 1.292.345 1.386.282.063-.094.032-1.348-.094-2.79l-.221-2.666-1.732-.063c-.945-.03-2.079.063-2.489.22ZM95.195 9.656c-.095.91-.252 4.547-.378 8.09-.19 5.613-.158 6.585.315 7.431 1.197 2.32 4 3.418 8.033 3.136 2.488-.157 4-.69 5.292-1.882l.693-.627-.189 1.16-.189 1.13H114.789l.189-2.886c.252-4.483.819-15.677.819-16.493 0-.658-.095-.69-2.993-.69-2.173 0-2.993.095-2.993.377-.031.22-.157 2.728-.315 5.55-.315 5.581-.819 7.337-2.551 8.591-1.197.847-3.056 1.004-4.379.314-1.89-.972-2.048-1.662-1.607-7.588.189-2.854.347-5.676.347-6.24V8.025h-5.922l-.19 1.631Z"/></g><defs><clipPath id="clip0_3583_66519"><path fill="#fff" d="M.5.5h172v37H.5z"/></clipPath></defs></svg>